#N canvas 86 62 541 624 10;
#X declare -lib mrpeach;
#X obj 17 211 pix_drum;
#X obj 17 275 pix_texture;
#X obj 17 148 gemhead 1;
#X obj 17 169 pix_video;
#X obj 17 190 pix_grey;
#N canvas 453 161 225 82 gemwin 0;
#X obj 61 138 gemwin;
#X msg 46 83 create \, 1;
#X msg 142 99 0 \, destroy;
#X obj 24 12 loadbang;
#X obj 24 38 t b b b;
#X msg 126 65 dimen 320 200;
#X connect 1 0 0 0;
#X connect 2 0 0 0;
#X connect 3 0 4 0;
#X connect 4 1 1 0;
#X connect 4 2 5 0;
#X connect 5 0 0 0;
#X restore -18 9 pd gemwin;
#N canvas 569 199 294 185 presets 0;
#X obj 21 54 r refresh;
#X msg 21 73 \; ver-dim 240 \; hor-dim 320 \; dimen 320 240 \;;
#X obj 39 14 loadbang;
#X obj 21 15 bng 15 250 50 0 empty empty empty 17 7 0 10 -262144 -1
-1;
#X obj 21 34 s refresh;
#X obj 153 13 loadbang;
#X obj 21 -5 inlet;
#X msg 186 39 \; i-bottom 200 \; i-head 116 \; i-left 19 \; i-right
302 \;;
#X connect 0 0 1 0;
#X connect 2 0 3 0;
#X connect 3 0 4 0;
#X connect 5 0 7 0;
#X connect 6 0 3 0;
#X restore -21 37 pd presets;
#X text 129 241 outlet 2: secondary peak information;
#X text 152 273 side: At which side of the 1ry preak is the secondary
peak.;
#X text 186 285 Left = 0 \, Right = 1;
#X text 162 257 [side \, index \, x coord. \, y coord.];
#X obj 240 411 import mrpeach;
#X obj 44 533 udpsend;
#X obj 44 391 loadbang;
#X obj 79 498 packOSC;
#X obj 39 242 s to_OSC;
#X obj 79 444 r to_OSC;
#X msg 80 475 sendtyped /wek/inputs ffff \$1 \$2 \$3 \$4;
#X msg 44 413 connect localhost 6448;
#X text 153 298 index: index 0 - n of each secondary peak.;
#X obj 17 299 rectangle 5.33 4;
#X msg 139 184 460 10 10 618;
#X obj 139 155 loadbang;
#X obj 290 530 r to_OSC;
#X obj 290 555 unpack f f f f;
#X floatatom 278 588 3 0 0 0 - - -;
#X floatatom 308 586 3 0 0 0 - - -;
#X floatatom 371 586 3 0 0 0 - - -;
#X floatatom 334 587 5 0 0 0 - - -;
#X obj 54 73 loadbang;
#X msg 120 91 2 \$1 20 0.12 10 12;
#X obj 124 67 hsl 100 15 0 1 0 0 empty empty empty -2 -8 0 10 -204786
-1 -1 2500 1;
#X text 121 34 Modify treshold according to the amount of light on
your environment;
#X connect 0 0 1 0;
#X connect 0 2 15 0;
#X connect 1 0 20 0;
#X connect 2 0 3 0;
#X connect 3 0 4 0;
#X connect 4 0 0 0;
#X connect 13 0 18 0;
#X connect 14 0 12 0;
#X connect 16 0 17 0;
#X connect 17 0 14 0;
#X connect 18 0 12 0;
#X connect 21 0 0 2;
#X connect 22 0 21 0;
#X connect 23 0 24 0;
#X connect 24 0 25 0;
#X connect 24 1 26 0;
#X connect 24 2 28 0;
#X connect 24 3 27 0;
#X connect 29 0 30 0;
#X connect 30 0 0 1;
#X connect 31 0 30 0;
